<?xml version="1.0" standalone="no"?>
<!DOCTYPE svg PUBLIC "-//W3C//DTD SVG 20010904//EN"
 "http://www.w3.org/TR/2001/REC-SVG-20010904/DTD/svg10.dtd">
<svg version="1.0" xmlns="http://www.w3.org/2000/svg"
 width="1920.000000pt" height="1920.000000pt" viewBox="0 0 1920.000000 1920.000000"
 preserveAspectRatio="xMidYMid meet">
<metadata>
Created by potrace 1.11, written by Peter Selinger 2001-2013
</metadata>
<g transform="translate(0.000000,1920.000000) scale(0.100000,-0.100000)"
fill="#000000" stroke="none">
<path d="M6267 12253 c-11 -18 -647 -2285 -647 -2304 0 -12 65 -249 144 -528
79 -278 265 -933 412 -1456 147 -522 270 -953 273 -957 4 -4 154 516 335 1156
249 883 327 1171 322 1192 -4 16 -131 466 -281 999 -151 534 -326 1157 -390
1385 -64 228 -123 439 -131 468 -14 48 -26 63 -37 45z"/>
<path d="M9267 12253 c-11 -19 -647 -2286 -647 -2307 0 -12 22 -99 49 -192 65
-220 791 -2791 791 -2798 0 -3 306 -6 680 -6 374 0 680 2 680 4 0 2 41 150 90
328 50 177 99 353 109 389 18 63 18 67 1 102 -12 25 -14 37 -7 37 7 1 6 5 -3
13 -9 7 -15 26 -14 42 0 17 -3 33 -8 36 -5 3 -11 16 -13 29 -2 13 -9 28 -14
33 -5 5 -7 16 -4 23 3 8 0 14 -7 14 -6 0 -9 4 -6 9 3 5 0 24 -8 42 -7 19 -11
40 -9 47 3 6 -2 12 -10 12 -8 0 -14 6 -14 13 3 29 -16 107 -28 117 -8 6 -16
29 -20 51 -4 21 -11 41 -16 45 -5 3 -9 13 -9 22 0 9 -7 30 -15 46 -9 16 -13
36 -10 43 2 8 0 11 -5 8 -6 -3 -10 2 -10 13 0 10 -3 22 -7 26 -5 4 -8 11 -9
14 -2 27 -28 100 -39 112 -8 8 -19 38 -26 65 -6 28 -17 57 -24 65 -7 8 -18 36
-26 62 -7 26 -16 45 -20 42 -8 -5 -17 18 -25 63 -3 15 -9 30 -13 33 -8 5 -30
44 -92 161 -14 27 -49 74 -76 104 -28 30 -48 55 -46 55 3 0 -11 15 -31 33 -19
17 -58 52 -85 76 -27 25 -55 45 -63 47 -10 1 -21 -24 -38 -82 -13 -46 -26 -84
-30 -84 -6 0 -232 795 -651 2290 -104 371 -192 683 -195 693 -6 18 -19 23 -27
10z"/>
<path d="M12317 12253 c-7 -11 -277 -970 -277 -983 0 -7 486 -10 1559 -10
l1558 0 297 494 c163 272 296 497 296 500 0 9 -3428 7 -3433 -1z"/>
<path d="M11765 10308 c-6 -17 -261 -925 -270 -960 l-7 -28 1144 0 1145 0 297
494 c163 272 296 497 296 500 0 3 -585 6 -1300 6 -1032 0 -1302 -3 -1305 -12z"/>
<path d="M7770 6960 c0 -5 5 -10 11 -10 5 0 7 5 4 10 -3 6 -8 10 -11 10 -2 0
-4 -4 -4 -10z"/>
</g>
</svg>
